<svg width="62" height="100" viewBox="0 0 62 100" fill="none" xmlns="http://www.w3.org/2000/svg">
<path d="M24.7459 0.5V12.8114H15.5123C7.1406 12.8114 0.123114 19.8289 0.123114 28.2006V34.3563C0.123114 42.728 5.54012 49.6224 13.5425 51.7153L45.0596 59.8408C46.7832 60.3333 49.2455 63.4111 49.2455 65.2578V71.4135C49.2455 73.1371 47.8913 74.4914 46.1677 74.4914H15.3892C13.9119 74.4914 12.8038 73.9989 12.3114 73.7527V62.18H0V74.4914C0 78.6772 2.46228 82.2475 5.41701 84.0942C8.24862 86.0641 11.8189 86.8028 15.3892 86.8028H24.6228V99.1141H36.9341V86.8028H46.1677C54.6625 86.8028 61.5569 79.9084 61.5569 71.4135V65.2578C61.5569 56.8861 56.1399 49.9917 48.1375 47.8988L16.6204 39.7733C14.8968 39.2808 12.4345 36.203 12.4345 34.3563V28.2006C12.4345 26.477 13.7887 25.1228 15.5123 25.1228H46.2908C47.645 25.1228 48.8762 25.6152 49.3686 25.8614V37.4341H61.68V25.1228C61.68 20.9369 59.2177 17.3666 56.263 15.5199C53.4314 13.5501 49.8611 12.8114 46.2908 12.8114H37.0572V0.5L24.7459 0.5Z" fill="#F4DD0E"/>
</svg>
